<?xml version="1.0" encoding="UTF-8" standalone="no"?>
<svg
   xmlns:dc="http://purl.org/dc/elements/1.1/"
   xmlns:cc="http://creativecommons.org/ns#"
   xmlns:rdf="http://www.w3.org/1999/02/22-rdf-syntax-ns#"
   xmlns:svg="http://www.w3.org/2000/svg"
   xmlns="http://www.w3.org/2000/svg"
   xmlns:sodipodi="http://sodipodi.sourceforge.net/DTD/sodipodi-0.dtd"
   xmlns:inkscape="http://www.inkscape.org/namespaces/inkscape"
   width="50"
   height="50"
   viewBox="0 0 13.229166 13.229167"
   version="1.1"
   id="svg8"
   inkscape:version="1.0.2-2 (e86c870879, 2021-01-15)"
   sodipodi:docname="lorem logo.svg">
  <defs
     id="defs2" />
  <sodipodi:namedview
     id="base"
     pagecolor="#ffffff"
     bordercolor="#666666"
     borderopacity="1.0"
     inkscape:pageopacity="0.0"
     inkscape:pageshadow="2"
     inkscape:zoom="1.886132"
     inkscape:cx="146.42058"
     inkscape:cy="65.68243"
     inkscape:document-units="px"
     inkscape:current-layer="layer1"
     inkscape:document-rotation="0"
     showgrid="false"
     units="px"
     inkscape:snap-bbox="true"
     inkscape:bbox-paths="true"
     inkscape:bbox-nodes="true"
     inkscape:snap-bbox-edge-midpoints="true"
     inkscape:snap-bbox-midpoints="true"
     inkscape:object-paths="true"
     inkscape:snap-intersection-paths="true"
     inkscape:snap-smooth-nodes="true"
     inkscape:snap-midpoints="true"
     inkscape:snap-page="true"
     inkscape:window-width="2560"
     inkscape:window-height="1417"
     inkscape:window-x="1072"
     inkscape:window-y="-8"
     inkscape:window-maximized="1" />
  <metadata
     id="metadata5">
    <rdf:RDF>
      <cc:Work
         rdf:about="">
        <dc:format>image/svg+xml</dc:format>
        <dc:type
           rdf:resource="http://purl.org/dc/dcmitype/StillImage" />
        <dc:title></dc:title>
      </cc:Work>
    </rdf:RDF>
  </metadata>
  <g
     inkscape:label="Layer 1"
     inkscape:groupmode="layer"
     id="layer1">
    <g
       id="g901"
       transform="matrix(0.86206888,0,0,0.86206888,-5.5067354,8.0896751)"
       style="stroke-width:1.16">
      <rect
         style="fill:#a61e4d;fill-opacity:1;fill-rule:evenodd;stroke-width:3.06916;stroke-linecap:round;stroke-linejoin:round"
         id="rect833"
         width="13.229166"
         height="13.229167"
         x="-19.48242"
         y="29.360023"
         ry="1.1139286" />
      <rect
         style="fill:#c2255c;fill-opacity:1;fill-rule:evenodd;stroke-width:3.06916;stroke-linecap:round;stroke-linejoin:round"
         id="rect835"
         width="13.229166"
         height="13.229167"
         x="-18.424088"
         y="30.418356"
         ry="1.1139286" />
      <rect
         style="fill:#d6336c;fill-opacity:1;fill-rule:evenodd;stroke-width:3.06916;stroke-linecap:round;stroke-linejoin:round"
         id="rect837"
         width="13.229166"
         height="13.229167"
         x="-17.365753"
         y="31.476688"
         ry="1.1139286" />
    </g>
    <g
       id="g896"
       transform="matrix(0.86615191,0,0,0.86615191,-6.4173069,8.175377)"
       style="stroke-width:1.15453">
      <rect
         style="fill:#087f5b;fill-opacity:1;fill-rule:evenodd;stroke-width:3.05468;stroke-linecap:round;stroke-linejoin:round"
         id="rect841"
         width="9.260417"
         height="13.229167"
         x="3.0159521"
         y="30.144836"
         ry="1.1139287" />
      <rect
         style="fill:#099268;fill-opacity:1;fill-rule:evenodd;stroke-width:3.05468;stroke-linecap:round;stroke-linejoin:round"
         id="rect857"
         width="9.260417"
         height="13.229167"
         x="12.269453"
         y="26.913319"
         ry="1.1139287"
         transform="rotate(15)" />
      <rect
         style="fill:#0ca678;fill-opacity:1;fill-rule:evenodd;stroke-width:3.05468;stroke-linecap:round;stroke-linejoin:round"
         id="rect859"
         width="9.260417"
         height="13.229167"
         x="20.371271"
         y="21.396929"
         ry="1.1139287"
         transform="rotate(30)" />
    </g>
    <g
       id="g887"
       transform="matrix(0.97463461,0,0,0.97463461,-8.2634212,4.6978599)"
       style="stroke-width:1.02603">
      <path
         id="path863"
         style="fill:#1864ab;fill-opacity:1;fill-rule:evenodd;stroke-width:2.71468;stroke-linecap:round;stroke-linejoin:round"
         inkscape:transform-center-x="1.204069e-06"
         inkscape:transform-center-y="-1.9094677"
         d="m 34.613082,40.90596 -1.587503,1.058334 -5.02708,-1.058334 h -6.614583 l 3.307291,-5.728397 1.719789,-4.670063 1.587503,-1.058334 3.307291,5.728397 z"
         sodipodi:nodetypes="ccccccccc" />
      <path
         id="path867"
         style="fill:#1c7ed6;fill-opacity:1;fill-rule:evenodd;stroke-width:2.71468;stroke-linecap:round;stroke-linejoin:round"
         inkscape:transform-center-x="1.204069e-06"
         inkscape:transform-center-y="-1.9094677"
         d="m 33.025579,41.964294 -1.587498,1.058335 -5.027085,-1.058335 h -6.614584 l 3.307292,-5.728397 1.719794,-4.670062 1.587498,-1.058335 2.310248,4.001468 0.997043,1.726929 z"
         sodipodi:nodetypes="cccccccccc" />
      <path
         id="path861"
         style="fill:#339af0;fill-opacity:1;fill-rule:evenodd;stroke-width:2.71468;stroke-linecap:round;stroke-linejoin:round"
         inkscape:transform-center-x="1.204069e-06"
         inkscape:transform-center-y="-1.9094667"
         d="m 31.438081,43.022629 h -6.614583 -6.614583 l 3.307291,-5.728397 3.307292,-5.728397 3.307291,5.728396 z" />
    </g>
    <g
       id="g882"
       transform="matrix(1.0756495,0,0,1.0756495,-13.628141,0.23355164)"
       style="stroke-width:0.929671">
      <path
         style="fill:#f08c00;fill-opacity:1;fill-rule:evenodd;stroke-width:2.45975;stroke-linecap:round;stroke-linejoin:round"
         d="m 40.713322,37.905314 c 3.558625,2.025605 0.711809,7.750411 5.697941,3.959546 3.621548,-2.753398 2.52555,-9.762679 -0.03423,-6.486406 -1.540432,1.971605 2.138851,-3.423331 -5.478627,-2.166737 -1.72472,0.284513 -2.154327,3.447203 -0.185084,4.693597 z"
         id="path873"
         sodipodi:nodetypes="cscsc" />
      <path
         style="fill:#e67700;fill-opacity:1;fill-rule:evenodd;stroke-width:2.45975;stroke-linecap:round;stroke-linejoin:round"
         d="m 49.52159,33.723877 c 2.138435,7.62486 -2.090926,9.787203 -3.423225,6.559857 -1.223759,-2.964418 -3.464208,2.266798 -5.386705,0.294754 -1.812365,-1.859073 5.393693,-15.608607 8.80993,-6.854611 z"
         id="path869"
         sodipodi:nodetypes="cscc" />
    </g>
    <g
       id="g865"
       transform="matrix(0.86206888,0,0,0.86206888,-4.5299914,8.2112276)"
       style="stroke-width:1.16">
      <path
         id="rect875"
         style="fill:#5f3dc4;fill-opacity:1;fill-rule:evenodd;stroke-width:3.06916;stroke-linecap:round;stroke-linejoin:round"
         d="m 61.088378,31.335688 h 5.291667 l -5.291668,13.229168 h -5.291666 z"
         sodipodi:nodetypes="ccccc" />
      <path
         id="rect879"
         style="fill:#7048e8;fill-opacity:1;fill-rule:evenodd;stroke-width:3.06916;stroke-linecap:round;stroke-linejoin:round"
         d="m 65.321711,30.277355 h 5.291666 L 65.32171,43.506521 h -5.291666 z"
         sodipodi:nodetypes="ccccc" />
      <path
         id="rect881"
         style="fill:#845ef7;fill-opacity:1;fill-rule:evenodd;stroke-width:3.06916;stroke-linecap:round;stroke-linejoin:round"
         d="m 69.555043,29.219021 h 5.291666 l -5.291666,13.229167 h -5.291666 z"
         sodipodi:nodetypes="ccccc" />
      <path
         style="fill:#6440cf;fill-opacity:1;fill-rule:evenodd;stroke-width:3.06916;stroke-linecap:round;stroke-linejoin:round"
         d="m 60.030044,43.506521 1.058333,1.058335 0.423334,-1.058335 z"
         id="path890" />
      <path
         style="fill:#7950f2;fill-opacity:1;fill-rule:evenodd;stroke-width:3.06916;stroke-linecap:round;stroke-linejoin:round"
         d="m 64.263377,42.448188 1.058333,1.058333 c 0,0 0.423333,-1.058333 0.423333,-1.058333 z"
         id="path892" />
    </g>
    <g
       id="g925"
       transform="matrix(1.142833,0,0,1.142833,56.511719,25.025944)"
       style="stroke-width:0.875018">
      <path
         style="color:#000000;font-style:normal;font-variant:normal;font-weight:normal;font-stretch:normal;font-size:medium;line-height:normal;font-family:sans-serif;font-variant-ligatures:normal;font-variant-position:normal;font-variant-caps:normal;font-variant-numeric:normal;font-variant-alternates:normal;font-variant-east-asian:normal;font-feature-settings:normal;font-variation-settings:normal;text-indent:0;text-align:start;text-decoration:none;text-decoration-line:none;text-decoration-style:solid;text-decoration-color:#000000;letter-spacing:normal;word-spacing:normal;text-transform:none;writing-mode:lr-tb;direction:ltr;text-orientation:mixed;dominant-baseline:auto;baseline-shift:baseline;text-anchor:start;white-space:normal;shape-padding:0;shape-margin:0;inline-size:0;clip-rule:nonzero;display:inline;overflow:visible;visibility:visible;opacity:1;isolation:auto;mix-blend-mode:normal;color-interpolation:sRGB;color-interpolation-filters:linearRGB;solid-color:#000000;solid-opacity:1;vector-effect:none;fill:#5c940d;fill-opacity:1;fill-rule:evenodd;stroke:none;stroke-width:0.875018;stroke-linecap:round;stroke-linejoin:round;stroke-miterlimit:4;stroke-dasharray:none;stroke-dashoffset:0;stroke-opacity:1;color-rendering:auto;image-rendering:auto;shape-rendering:auto;text-rendering:auto;enable-background:accumulate;stop-color:#000000;stop-opacity:1"
         d="m 14.19636,7.3274853 c -1.816863,0 -3.30778,1.4899406 -3.30778,3.3068037 0,1.816863 1.490917,3.30778 3.30778,3.30778 1.816863,0 3.306804,-1.490917 3.306804,-3.30778 0,-1.8168631 -1.489941,-3.3068037 -3.306804,-3.3068037 z m 0,1.6534017 c 0.923123,0 1.653402,0.7302788 1.653402,1.653402 0,0.923122 -0.730279,1.654379 -1.653402,1.654379 -0.923123,0 -1.654378,-0.731257 -1.654378,-1.654379 0,-0.9231232 0.731255,-1.653402 1.654378,-1.653402 z"
         id="circle896" />
      <path
         style="color:#000000;font-style:normal;font-variant:normal;font-weight:normal;font-stretch:normal;font-size:medium;line-height:normal;font-family:sans-serif;font-variant-ligatures:normal;font-variant-position:normal;font-variant-caps:normal;font-variant-numeric:normal;font-variant-alternates:normal;font-variant-east-asian:normal;font-feature-settings:normal;font-variation-settings:normal;text-indent:0;text-align:start;text-decoration:none;text-decoration-line:none;text-decoration-style:solid;text-decoration-color:#000000;letter-spacing:normal;word-spacing:normal;text-transform:none;writing-mode:lr-tb;direction:ltr;text-orientation:mixed;dominant-baseline:auto;baseline-shift:baseline;text-anchor:start;white-space:normal;shape-padding:0;shape-margin:0;inline-size:0;clip-rule:nonzero;display:inline;overflow:visible;visibility:visible;opacity:1;isolation:auto;mix-blend-mode:normal;color-interpolation:sRGB;color-interpolation-filters:linearRGB;solid-color:#000000;solid-opacity:1;vector-effect:none;fill:#66a80f;fill-opacity:1;fill-rule:evenodd;stroke:none;stroke-width:0.875018;stroke-linecap:round;stroke-linejoin:round;stroke-miterlimit:4;stroke-dasharray:none;stroke-dashoffset:0;stroke-opacity:1;color-rendering:auto;image-rendering:auto;shape-rendering:auto;text-rendering:auto;enable-background:accumulate;stop-color:#000000;stop-opacity:1"
         d="m 9.2351782,7.3274853 c -1.8168628,0 -3.30778,1.4899406 -3.30778,3.3068037 0,1.816863 1.4909172,3.30778 3.30778,3.30778 1.8168628,0 3.3068038,-1.490917 3.3068038,-3.30778 0,-1.8168631 -1.489941,-3.3068037 -3.3068038,-3.3068037 z m 0,1.6534017 c 0.9231228,0 1.6534018,0.7302788 1.6534018,1.653402 0,0.923122 -0.730279,1.654379 -1.6534018,1.654379 -0.9231227,0 -1.6543783,-0.731257 -1.6543783,-1.654379 0,-0.9231232 0.7312556,-1.653402 1.6543783,-1.653402 z"
         id="circle900" />
      <path
         style="color:#000000;font-style:normal;font-variant:normal;font-weight:normal;font-stretch:normal;font-size:medium;line-height:normal;font-family:sans-serif;font-variant-ligatures:normal;font-variant-position:normal;font-variant-caps:normal;font-variant-numeric:normal;font-variant-alternates:normal;font-variant-east-asian:normal;font-feature-settings:normal;font-variation-settings:normal;text-indent:0;text-align:start;text-decoration:none;text-decoration-line:none;text-decoration-style:solid;text-decoration-color:#000000;letter-spacing:normal;word-spacing:normal;text-transform:none;writing-mode:lr-tb;direction:ltr;text-orientation:mixed;dominant-baseline:auto;baseline-shift:baseline;text-anchor:start;white-space:normal;shape-padding:0;shape-margin:0;inline-size:0;clip-rule:nonzero;display:inline;overflow:visible;visibility:visible;opacity:1;isolation:auto;mix-blend-mode:normal;color-interpolation:sRGB;color-interpolation-filters:linearRGB;solid-color:#000000;solid-opacity:1;vector-effect:none;fill:#74b816;fill-opacity:1;fill-rule:evenodd;stroke:none;stroke-width:0.875018;stroke-linecap:round;stroke-linejoin:round;stroke-miterlimit:4;stroke-dasharray:none;stroke-dashoffset:0;stroke-opacity:1;color-rendering:auto;image-rendering:auto;shape-rendering:auto;text-rendering:auto;enable-background:accumulate;stop-color:#000000;stop-opacity:1"
         d="m 9.2351782,12.288667 c -1.8168628,0 -3.30778,1.489941 -3.30778,3.306804 0,1.816863 1.4909172,3.30778 3.30778,3.30778 1.8168628,0 3.3068038,-1.490917 3.3068038,-3.30778 0,-1.816863 -1.489941,-3.306804 -3.3068038,-3.306804 z m 0,1.653402 c 0.9231228,0 1.6534018,0.730279 1.6534018,1.653402 0,0.923122 -0.730279,1.654379 -1.6534018,1.654379 -0.9231227,0 -1.6543783,-0.731257 -1.6543783,-1.654379 0,-0.923123 0.7312556,-1.653402 1.6543783,-1.653402 z"
         id="path914" />
      <path
         id="path912"
         style="color:#000000;font-style:normal;font-variant:normal;font-weight:normal;font-stretch:normal;font-size:medium;line-height:normal;font-family:sans-serif;font-variant-ligatures:normal;font-variant-position:normal;font-variant-caps:normal;font-variant-numeric:normal;font-variant-alternates:normal;font-variant-east-asian:normal;font-feature-settings:normal;font-variation-settings:normal;text-indent:0;text-align:start;text-decoration:none;text-decoration-line:none;text-decoration-style:solid;text-decoration-color:#000000;letter-spacing:normal;word-spacing:normal;text-transform:none;writing-mode:lr-tb;direction:ltr;text-orientation:mixed;dominant-baseline:auto;baseline-shift:baseline;text-anchor:start;white-space:normal;shape-padding:0;shape-margin:0;inline-size:0;clip-rule:nonzero;display:inline;overflow:visible;visibility:visible;opacity:1;isolation:auto;mix-blend-mode:normal;color-interpolation:sRGB;color-interpolation-filters:linearRGB;solid-color:#000000;solid-opacity:1;vector-effect:none;fill:#82c91e;fill-opacity:1;fill-rule:evenodd;stroke:none;stroke-width:3.30715;stroke-linecap:round;stroke-linejoin:round;stroke-miterlimit:4;stroke-dasharray:none;stroke-dashoffset:0;stroke-opacity:1;color-rendering:auto;image-rendering:auto;shape-rendering:auto;text-rendering:auto;enable-background:accumulate;stop-color:#000000;stop-opacity:1"
         d="m 45.433594,49.570312 c -2.613268,2.296153 -4.279297,5.648214 -4.279297,9.373047 0,6.866884 5.635069,12.501953 12.501953,12.501953 6.866884,0 12.498047,-5.635069 12.498047,-12.501953 0,-3.724999 -1.666822,-7.076887 -4.279297,-9.373047 -2.20339,1.93704 -5.077334,3.125 -8.21875,3.125 3.488969,0 6.248047,2.759079 6.248047,6.248047 0,3.488965 -2.759078,6.251953 -6.248047,6.251953 -3.488969,0 -6.253906,-2.762988 -6.253906,-6.251953 0,-3.488968 2.764937,-6.248046 6.253906,-6.248047 -3.14158,10e-7 -6.018385,-1.187779 -8.222656,-3.125 z"
         transform="scale(0.26458333)" />
    </g>
    <g
       id="g870"
       transform="matrix(0.94036346,0,0,0.94036346,-9.5909601,5.7507562)"
       style="stroke-width:1.06342">
      <path
         style="fill:#c92a2a;fill-opacity:1;fill-rule:evenodd;stroke:none;stroke-width:3.51704;stroke-linecap:round;stroke-linejoin:miter;stroke-miterlimit:4;stroke-dasharray:none;stroke-opacity:1"
         d="m 99.332721,33.647163 4.552469,7.769994 6.09277,-3.422903 -4.79207,-5.408192 0.71881,4.826296 z"
         id="path940" />
      <path
         style="fill:#e03131;fill-opacity:1;fill-rule:evenodd;stroke:none;stroke-width:3.51704;stroke-linecap:round;stroke-linejoin:miter;stroke-miterlimit:4;stroke-dasharray:none;stroke-opacity:1"
         d="m 105.18589,32.586062 -5.373961,-3.183303 2.361801,3.85077 -2.841009,0.393634 6.571979,3.765195 z"
         id="path942"
         sodipodi:nodetypes="cccccc" />
      <path
         style="fill:#f03e3e;fill-opacity:1;fill-rule:evenodd;stroke:none;stroke-width:3.51704;stroke-linecap:round;stroke-linejoin:miter;stroke-miterlimit:4;stroke-dasharray:none;stroke-opacity:1"
         d="m 99.332721,33.647163 c 0,0 -4.603808,9.44722 -4.244401,9.258958 0.359405,-0.188259 5.80182,-2.053743 5.80182,-2.053743 l 3.16619,2.618523 -0.17114,-2.053744 z"
         id="path944"
         sodipodi:nodetypes="cscccc" />
    </g>
    <g
       id="g878"
       transform="translate(-19.03349,3.0281582)"
       style="stroke-width:1">
      <path
         id="rect946"
         style="fill:#9c36b5;fill-opacity:1;fill-rule:evenodd;stroke:none;stroke-width:3.30732;stroke-linecap:round;stroke-linejoin:miter;stroke-miterlimit:4;stroke-dasharray:none;stroke-opacity:1"
         d="m 120.9214,30.901289 -4.76646,4.766463 7.93285,7.933293 7.9333,-7.933293 -4.76646,-4.766463 -3.16684,0.789298 z" />
      <path
         id="rect954"
         style="fill:#be4bdb;fill-opacity:1;fill-rule:evenodd;stroke:none;stroke-width:3.30732;stroke-linecap:round;stroke-linejoin:miter;stroke-miterlimit:4;stroke-dasharray:none;stroke-opacity:1"
         d="m 120.14087,30.706703 -3.98593,3.001611 7.93285,5.973853 7.9333,-5.973853 -3.98637,-3.001611 -3.94693,0.983884 z" />
      <path
         id="rect956"
         style="fill:#da77f2;fill-opacity:1;fill-rule:evenodd;stroke:none;stroke-width:3.30732;stroke-linecap:round;stroke-linejoin:miter;stroke-miterlimit:4;stroke-dasharray:none;stroke-opacity:1"
         d="m 118.79893,30.371878 -2.64443,1.318709 7.93329,3.956566 7.9333,-3.956566 -2.64443,-1.318709 -5.28887,1.318709 z" />
      <path
         style="opacity:1;fill:#862e9c;fill-opacity:1;fill-rule:evenodd;stroke:none;stroke-width:3.30729;stroke-linecap:round;stroke-linejoin:miter;stroke-miterlimit:4;stroke-dasharray:none;stroke-opacity:1"
         d="m 124.08798,39.682034 v 3.918889 c 0,0 7.93327,-7.933263 7.93327,-7.933263 l -1.11776,-1.11776 z"
         id="path960" />
      <path
         style="opacity:1;fill:#ae3ec9;fill-opacity:1;fill-rule:evenodd;stroke:none;stroke-width:3.30729;stroke-linecap:round;stroke-linejoin:miter;stroke-miterlimit:4;stroke-dasharray:none;stroke-opacity:1"
         d="m 124.08779,35.647153 v 4.035014 l 7.93346,-5.973951 -1.6118,-1.213701 z"
         id="path962"
         sodipodi:nodetypes="ccccc" />
      <path
         style="opacity:1;fill:#cc5de8;fill-opacity:1;fill-rule:evenodd;stroke:none;stroke-width:3.30729;stroke-linecap:round;stroke-linejoin:miter;stroke-miterlimit:4;stroke-dasharray:none;stroke-opacity:1"
         d="m 124.08798,31.69071 -1.9e-4,3.956443 7.93346,-3.956441 -2.64442,-1.318773 z"
         id="path966"
         sodipodi:nodetypes="ccccc" />
    </g>
  </g>
</svg>
